<svg width="1440" height="1024" viewBox="0 0 1440 1024" fill="none" xmlns="http://www.w3.org/2000/svg">
<g clip-path="url(#clip0_275_1859)">
<rect width="1440" height="1024" fill="white"/>
<g clip-path="url(#clip1_275_1859)">
<rect width="1440" height="1024" fill="white"/>
<rect width="1440" height="1024" fill="#9E028F"/>
<g opacity="0.8">
<g style="mix-blend-mode:luminosity">
<path d="M840.587 363.929C916.436 363.929 977.95 302.418 977.95 226.573C977.95 150.728 916.436 89.2168 840.587 89.2168C764.739 89.2168 703.226 150.728 703.226 226.573C703.226 302.418 764.739 363.929 840.587 363.929ZM438.033 476.24C388.649 476.24 348.638 516.25 348.638 565.632C348.638 615.014 388.649 655.024 438.033 655.024C487.417 655.024 527.428 615.014 527.428 565.632C527.428 516.25 487.417 476.24 438.033 476.24ZM1493.05 234.764C1484.55 131.826 1400.59 48.8133 1297.49 41.4887C1203.52 34.8729 1121.38 89.6106 1087.11 169.709L1086.88 170.26C1086.88 170.26 1086.88 170.339 1086.8 170.496L1026.47 314.39C997.088 384.407 938.883 438.357 866.894 462.378H866.815C816.092 479.233 759.935 466.71 721.262 429.536C705.746 414.65 693.381 402.758 693.381 402.758C662.112 372.908 641.476 334.001 633.915 292.101C631.316 277.767 630.213 262.96 630.764 248.153L636.987 88.3504L639.901 13.4503L639.822 13.5291C639.822 11.3239 639.901 9.19733 639.901 6.99207C639.901 -192.742 471.034 -353.095 268.378 -339.155C97.2278 -327.341 -41.3148 -188.646 -53.1292 -17.6596C-55.2558 12.5052 -53.4442 41.8825 -48.1671 70.0783C-18.4737 231.535 122.983 353.848 293.11 353.848C300.907 353.848 445.357 364.244 501.673 396.221L540.582 418.273C578.466 439.774 607.924 473.326 624.227 513.572L672.588 632.735L672.666 632.656C685.032 682.747 730.241 720 784.272 720C820.975 720 853.504 702.831 874.612 676.21C891.94 654.315 1017.88 526.961 1017.88 526.961C1047.89 496.56 1087.9 478.209 1130.59 475.295L1298.83 463.875C1386.49 457.023 1459.27 396.772 1484.47 315.571C1490.69 295.724 1494 274.695 1494 252.721C1493.76 246.814 1493.61 240.829 1493.05 234.764Z" fill="url(#paint0_linear_275_1859)"/>
</g>
<g style="mix-blend-mode:luminosity">
<path d="M599.413 660.071C523.564 660.071 462.05 721.582 462.05 797.427C462.05 873.272 523.564 934.783 599.413 934.783C675.261 934.783 736.774 873.272 736.774 797.427C736.774 721.582 675.261 660.071 599.413 660.071ZM1001.97 547.76C1051.35 547.76 1091.36 507.75 1091.36 458.368C1091.36 408.986 1051.35 368.976 1001.97 368.976C952.583 368.976 912.572 408.986 912.572 458.368C912.572 507.75 952.583 547.76 1001.97 547.76ZM-53.0549 789.236C-44.5486 892.174 39.4119 975.187 142.512 982.511C236.475 989.127 318.624 934.389 352.886 854.291L353.122 853.74C353.122 853.74 353.122 853.661 353.201 853.504L413.533 709.61C442.912 639.593 501.117 585.643 573.106 561.622H573.185C623.908 544.767 680.065 557.29 718.738 594.464C734.254 609.35 746.619 621.242 746.619 621.242C777.888 651.092 798.524 689.999 806.085 731.899C808.684 746.233 809.787 761.04 809.236 775.847L803.013 935.65L800.099 1010.55L800.178 1010.47C800.178 1012.68 800.099 1014.8 800.099 1017.01C800.099 1216.74 968.966 1377.1 1171.62 1363.15C1342.77 1351.34 1481.31 1212.65 1493.13 1041.66C1495.26 1011.49 1493.44 982.118 1488.17 953.922C1458.47 792.465 1317.02 670.152 1146.89 670.152C1139.09 670.152 994.643 659.756 938.327 627.779L899.418 605.727C861.534 584.226 832.076 550.674 815.773 510.428L767.412 391.265L767.334 391.344C754.968 341.253 709.759 304 655.728 304C619.025 304 586.496 321.169 565.388 347.79C548.06 369.685 422.118 497.039 422.118 497.039C392.11 527.44 352.099 545.791 309.41 548.705L141.172 560.125C53.5099 566.977 -19.2661 627.228 -44.4701 708.429C-50.6923 728.276 -54 749.305 -54 771.279C-53.7637 777.186 -53.6063 783.171 -53.0549 789.236Z" fill="url(#paint1_linear_275_1859)"/>
</g>
</g>
</g>
</g>
<defs>
<linearGradient id="paint0_linear_275_1859" x1="38.6479" y1="45.051" x2="1357.36" y2="472.154" gradientUnits="userSpaceOnUse">
<stop offset="0.00030185" stop-color="#FC5252" stop-opacity="0.2"/>
<stop offset="0.999" stop-color="#9D00C6"/>
</linearGradient>
<linearGradient id="paint1_linear_275_1859" x1="1401.35" y1="978.949" x2="82.6357" y2="551.846" gradientUnits="userSpaceOnUse">
<stop offset="0.00030185" stop-color="#FC5252" stop-opacity="0.2"/>
<stop offset="0.999" stop-color="#9D00C6"/>
</linearGradient>
<clipPath id="clip0_275_1859">
<rect width="1440" height="1024" fill="white"/>
</clipPath>
<clipPath id="clip1_275_1859">
<rect width="1440" height="1024" fill="white"/>
</clipPath>
</defs>
</svg>
