<svg width="20" height="20" viewBox="0 0 20 20" fill="none" xmlns="http://www.w3.org/2000/svg">
<g id="company icon" clip-path="url(#clip0_273_1138)">
<path id="Vector" d="M7.65897 0.108643H1.36445C0.600116 0.108643 0.015625 0.693133 0.015625 1.45747V19.4418C0.015625 19.6666 0.240429 19.8914 0.465233 19.8914H2.26367C2.53343 19.8914 2.71328 19.7116 2.71328 19.4418V16.7442C2.71328 16.4744 2.89312 16.2945 3.16288 16.2945H5.86053C6.1303 16.2945 6.31014 16.4744 6.31014 16.7442V19.4418C6.31014 19.7116 6.48999 19.8914 6.75975 19.8914H8.10858C8.60315 19.8914 9.00779 19.4868 9.00779 18.9922V1.45747C9.00779 0.693133 8.4233 0.108643 7.65897 0.108643ZM3.61249 14.2713C3.61249 14.4062 3.52257 14.4961 3.38769 14.4961H2.03886C1.90398 14.4961 1.81406 14.4062 1.81406 14.2713V12.0233C1.81406 11.8884 1.90398 11.7985 2.03886 11.7985H3.38769C3.52257 11.7985 3.61249 11.8884 3.61249 12.0233V14.2713ZM3.61249 9.77522C3.61249 9.9101 3.52257 10 3.38769 10H2.03886C1.90398 10 1.81406 9.9101 1.81406 9.77522V7.52718C1.81406 7.3923 1.90398 7.30238 2.03886 7.30238H3.38769C3.52257 7.30238 3.61249 7.3923 3.61249 7.52718V9.77522ZM3.61249 5.27914C3.61249 5.41402 3.52257 5.50394 3.38769 5.50394H2.03886C1.90398 5.50394 1.81406 5.41402 1.81406 5.27914V3.0311C1.81406 2.89621 1.90398 2.80629 2.03886 2.80629H3.38769C3.52257 2.80629 3.61249 2.89621 3.61249 3.0311V5.27914ZM7.20936 14.2713C7.20936 14.4062 7.11944 14.4961 6.98456 14.4961H5.63573C5.50085 14.4961 5.41093 14.4062 5.41093 14.2713V12.0233C5.41093 11.8884 5.50085 11.7985 5.63573 11.7985H6.98456C7.11944 11.7985 7.20936 11.8884 7.20936 12.0233V14.2713ZM7.20936 9.77522C7.20936 9.9101 7.11944 10 6.98456 10H5.63573C5.50085 10 5.41093 9.9101 5.41093 9.77522V7.52718C5.41093 7.3923 5.50085 7.30238 5.63573 7.30238H6.98456C7.11944 7.30238 7.20936 7.3923 7.20936 7.52718V9.77522ZM7.20936 5.27914C7.20936 5.41402 7.11944 5.50394 6.98456 5.50394H5.63573C5.50085 5.50394 5.41093 5.41402 5.41093 5.27914V3.0311C5.41093 2.89621 5.50085 2.80629 5.63573 2.80629H6.98456C7.11944 2.80629 7.20936 2.89621 7.20936 3.0311V5.27914Z" fill="#9E028F"/>
<path id="Vector_2" d="M18.4495 4.60474H12.155C11.3906 4.60474 10.8062 5.18923 10.8062 5.95356V19.4418C10.8062 19.6666 11.031 19.8914 11.2558 19.8914H13.0542C13.324 19.8914 13.5038 19.7116 13.5038 19.4418V16.7442C13.5038 16.4744 13.6836 16.2946 13.9534 16.2946H16.6511C16.9208 16.2946 17.1007 16.4744 17.1007 16.7442V19.4418C17.1007 19.7116 17.2805 19.8914 17.5503 19.8914H18.8991C19.3937 19.8914 19.7983 19.4868 19.7983 18.9922V5.95356C19.7983 5.18923 19.2138 4.60474 18.4495 4.60474ZM14.403 14.2713C14.403 14.4062 14.3131 14.4961 14.1782 14.4961H12.8294C12.6945 14.4961 12.6046 14.4062 12.6046 14.2713V12.0233C12.6046 11.8884 12.6945 11.7985 12.8294 11.7985H14.1782C14.3131 11.7985 14.403 11.8884 14.403 12.0233V14.2713ZM14.403 9.77523C14.403 9.91012 14.3131 10 14.1782 10H12.8294C12.6945 10 12.6046 9.91012 12.6046 9.77523V7.52719C12.6046 7.39231 12.6945 7.30239 12.8294 7.30239H14.1782C14.3131 7.30239 14.403 7.39231 14.403 7.52719V9.77523ZM17.9999 14.2713C17.9999 14.4062 17.91 14.4961 17.7751 14.4961H16.4263C16.2914 14.4961 16.2015 14.4062 16.2015 14.2713V12.0233C16.2015 11.8884 16.2914 11.7985 16.4263 11.7985H17.7751C17.91 11.7985 17.9999 11.8884 17.9999 12.0233V14.2713ZM17.9999 9.77523C17.9999 9.91012 17.91 10 17.7751 10H16.4263C16.2914 10 16.2015 9.91012 16.2015 9.77523V7.52719C16.2015 7.39231 16.2914 7.30239 16.4263 7.30239H17.7751C17.91 7.30239 17.9999 7.39231 17.9999 7.52719V9.77523Z" fill="#9E028F"/>
</g>
<defs>
<clipPath id="clip0_273_1138">
<rect width="20" height="20" fill="white"/>
</clipPath>
</defs>
</svg>
