<svg width="20" height="21" viewBox="0 0 20 21" fill="none" xmlns="http://www.w3.org/2000/svg">
<g id="calendar icon" clip-path="url(#clip0_273_1629)">
<path id="Vector" d="M0.714844 10.5286C0.714844 6.94206 0.714844 5.1488 1.80265 4.0346C2.89047 2.92041 4.64127 2.92041 8.14288 2.92041H11.8569C15.3585 2.92041 17.1094 2.92041 18.1971 4.0346C19.2849 5.1488 19.2849 6.94206 19.2849 10.5286V12.4306C19.2849 16.0171 19.2849 17.8105 18.1971 18.9246C17.1094 20.0388 15.3585 20.0388 11.8569 20.0388H8.14288C4.64127 20.0388 2.89047 20.0388 1.80265 18.9246C0.714844 17.8105 0.714844 16.0171 0.714844 12.4306V10.5286Z" stroke="#1C274C"/>
<path id="Vector_2" d="M5.35742 2.92019V1.49365" stroke="#1C274C" stroke-linecap="round"/>
<path id="Vector_3" d="M14.6426 2.92019V1.49365" stroke="#1C274C" stroke-linecap="round"/>
<path id="Vector_4" d="M1.17969 7.67529H18.8213" stroke="#1C274C" stroke-linecap="round"/>
<path id="Vector_5" d="M15.5709 15.2835C15.5709 15.8088 15.1552 16.2346 14.6424 16.2346C14.1296 16.2346 13.7139 15.8088 13.7139 15.2835C13.7139 14.7583 14.1296 14.3325 14.6424 14.3325C15.1552 14.3325 15.5709 14.7583 15.5709 15.2835Z" fill="#1C274C"/>
<path id="Vector_6" d="M15.5709 11.4793C15.5709 12.0046 15.1552 12.4304 14.6424 12.4304C14.1296 12.4304 13.7139 12.0046 13.7139 11.4793C13.7139 10.9541 14.1296 10.5283 14.6424 10.5283C15.1552 10.5283 15.5709 10.9541 15.5709 11.4793Z" fill="#1C274C"/>
<path id="Vector_7" d="M10.9283 15.2835C10.9283 15.8088 10.5126 16.2346 9.99979 16.2346C9.48698 16.2346 9.07129 15.8088 9.07129 15.2835C9.07129 14.7583 9.48698 14.3325 9.99979 14.3325C10.5126 14.3325 10.9283 14.7583 10.9283 15.2835Z" fill="#1C274C"/>
<path id="Vector_8" d="M10.9283 11.4793C10.9283 12.0046 10.5126 12.4304 9.99979 12.4304C9.48698 12.4304 9.07129 12.0046 9.07129 11.4793C9.07129 10.9541 9.48698 10.5283 9.99979 10.5283C10.5126 10.5283 10.9283 10.9541 10.9283 11.4793Z" fill="#1C274C"/>
<path id="Vector_9" d="M6.28572 15.2835C6.28572 15.8088 5.87001 16.2346 5.35722 16.2346C4.84442 16.2346 4.42871 15.8088 4.42871 15.2835C4.42871 14.7583 4.84442 14.3325 5.35722 14.3325C5.87001 14.3325 6.28572 14.7583 6.28572 15.2835Z" fill="#1C274C"/>
<path id="Vector_10" d="M6.28572 11.4793C6.28572 12.0046 5.87001 12.4304 5.35722 12.4304C4.84442 12.4304 4.42871 12.0046 4.42871 11.4793C4.42871 10.9541 4.84442 10.5283 5.35722 10.5283C5.87001 10.5283 6.28572 10.9541 6.28572 11.4793Z" fill="#1C274C"/>
</g>
<defs>
<clipPath id="clip0_273_1629">
<rect width="20" height="20" fill="white" transform="translate(0 0.770996)"/>
</clipPath>
</defs>
</svg>
