<svg width="16" height="16" viewBox="0 0 16 16" fill="none" xmlns="http://www.w3.org/2000/svg">
<g id="cancel">
<rect width="16" height="16" rx="3" fill="white"/>
<rect x="0.5" y="0.5" width="15" height="15" rx="2.5" stroke="#030229" stroke-opacity="0.5"/>
<path id="cancel_2" d="M5.14221 4.19523L8 7.05309L10.8578 4.19523C11.0961 3.95688 11.4738 3.93469 11.7559 4.15511L11.8048 4.19957C12.0651 4.45988 12.0651 4.88191 11.8048 5.14222L8.94692 8L11.8048 10.8578C12.0431 11.0961 12.0653 11.4738 11.8449 11.7559L11.8004 11.8048C11.5401 12.0651 11.1181 12.0651 10.8578 11.8048L8 8.94691L5.14221 11.8048C4.90387 12.0431 4.5262 12.0653 4.24406 11.8449L4.19523 11.8004C3.93493 11.5401 3.93492 11.1181 4.19523 10.8578L7.05308 8L4.19523 5.14222C3.95689 4.90388 3.93469 4.52619 4.15511 4.24406L4.19956 4.19523C4.45987 3.93492 4.88191 3.93492 5.14221 4.19523ZM4.67623 11.6666C4.67445 11.6667 4.67267 11.6667 4.6709 11.6667L4.67623 11.6666ZM4.72048 11.663L4.70587 11.6648C4.71071 11.6643 4.7156 11.6637 4.72048 11.663ZM4.62176 11.663L4.6277 11.6639C4.62569 11.6636 4.62378 11.6633 4.62176 11.663ZM4.57987 11.6541L4.58508 11.6555C4.58328 11.655 4.58166 11.6546 4.57987 11.6541ZM4.7628 11.6538L4.74483 11.6584C4.75083 11.657 4.75683 11.6555 4.7628 11.6538ZM4.80052 11.6405L4.78666 11.646C4.79128 11.6443 4.79591 11.6425 4.80052 11.6405ZM4.54122 11.6405C4.54201 11.6408 4.54286 11.6412 4.54122 11.6405V11.6405ZM4.50211 11.6209L4.46667 11.5968C4.48148 11.6083 4.49701 11.6184 4.51312 11.6271L4.50211 11.6209ZM4.83952 11.6209L4.82879 11.627C4.83232 11.6251 4.83593 11.6231 4.83952 11.6209ZM11.6271 11.4869L11.6209 11.4979L11.5968 11.5333C11.6083 11.5185 11.6184 11.503 11.6271 11.4869ZM11.6455 11.4462L11.6405 11.4588C11.6423 11.4546 11.6439 11.4504 11.6455 11.4462ZM11.6583 11.4037L11.6541 11.4201C11.6556 11.4148 11.657 11.4093 11.6583 11.4037ZM11.6648 11.3643L11.663 11.3782C11.6637 11.3737 11.6643 11.369 11.6648 11.3643ZM11.3291 4.66655L8 7.99575L4.6709 4.66655L4.66654 4.6709L7.99575 8L4.66654 11.3291L4.6709 11.3335L8 8.00426L11.3291 11.3335L11.3335 11.3291L8.00425 8L11.3335 4.6709L11.3291 4.66655ZM11.6666 11.3238L11.6666 11.3334C11.6667 11.3302 11.6667 11.327 11.6666 11.3238ZM11.663 11.2795L11.6648 11.2941C11.6643 11.2893 11.6637 11.2844 11.663 11.2795ZM11.6538 11.2372L11.6584 11.2552C11.657 11.2492 11.6555 11.2432 11.6538 11.2372ZM11.6405 11.1995L11.646 11.2134C11.6443 11.2087 11.6425 11.2041 11.6405 11.1995ZM11.621 11.1605L11.627 11.1712C11.6251 11.1677 11.6231 11.1641 11.621 11.1605ZM4.37302 4.82879L4.37805 4.83781C4.3763 4.83478 4.37468 4.83186 4.37302 4.82879ZM4.354 4.78665L4.35848 4.79814C4.3569 4.79431 4.35543 4.79052 4.354 4.78665ZM4.34159 4.74484L4.34452 4.7567C4.34347 4.75275 4.34249 4.74882 4.34159 4.74484ZM4.33502 4.70454L4.33612 4.71409C4.3357 4.7109 4.33534 4.70775 4.33502 4.70454ZM4.33347 4.66122L4.33333 4.6709C4.33333 4.66765 4.33338 4.66447 4.33347 4.66122ZM4.33695 4.62176L4.33612 4.6277C4.33638 4.62568 4.33665 4.62377 4.33695 4.62176ZM4.34595 4.57988L4.34452 4.58509C4.345 4.58329 4.34544 4.58167 4.34595 4.57988ZM4.3595 4.54122C4.35881 4.54286 4.35916 4.54201 4.3595 4.54122V4.54122ZM4.37915 4.50212L4.40322 4.46667C4.39171 4.48147 4.38161 4.49702 4.37294 4.51313L4.37915 4.50212ZM4.82865 4.37295L4.83968 4.37914L4.87512 4.40321C4.86032 4.3917 4.84476 4.38161 4.82865 4.37295ZM11.1712 4.37302L11.1622 4.37805C11.1652 4.3763 11.1681 4.37467 11.1712 4.37302ZM4.513 4.37302L4.50399 4.37805C4.50701 4.3763 4.50993 4.37467 4.513 4.37302ZM11.4869 4.37295L11.4979 4.37914L11.5333 4.40321C11.5185 4.3917 11.503 4.38161 11.4869 4.37295ZM4.55381 4.3545L4.54366 4.35849C4.54702 4.3571 4.55042 4.35577 4.55381 4.3545ZM4.7866 4.35398L4.80058 4.35951C4.79592 4.35754 4.79127 4.35571 4.7866 4.35398ZM11.2133 4.354L11.2019 4.35849C11.2057 4.35691 11.2095 4.35543 11.2133 4.354ZM11.4462 4.3545L11.4588 4.35951C11.4546 4.35774 11.4504 4.35608 11.4462 4.3545ZM4.59641 4.34172L4.58508 4.34451C4.58881 4.34352 4.59266 4.34258 4.59641 4.34172ZM4.74481 4.34159L4.76286 4.34621C4.75685 4.34449 4.75084 4.34296 4.74481 4.34159ZM11.2552 4.3416L11.2433 4.34451C11.2473 4.34347 11.2512 4.3425 11.2552 4.3416ZM11.4037 4.34174L11.4201 4.34594C11.4148 4.34443 11.4093 4.34301 11.4037 4.34174ZM4.63712 4.33504L4.6277 4.33613C4.63082 4.33572 4.634 4.33535 4.63712 4.33504ZM4.70449 4.33502L4.72044 4.33702C4.71515 4.33623 4.70983 4.33556 4.70449 4.33502ZM11.2955 4.33503L11.2859 4.33613C11.2891 4.33571 11.2923 4.33535 11.2955 4.33503ZM11.363 4.33505L11.3782 4.33695C11.3732 4.33621 11.3681 4.33557 11.363 4.33505ZM11.3194 4.33347L11.3388 4.33347C11.3324 4.33329 11.3259 4.33329 11.3194 4.33347ZM4.66117 4.33347L4.68056 4.33347C4.6741 4.33329 4.66763 4.33329 4.66117 4.33347Z" fill="#030229"/>
</g>
</svg>
