<svg width="18" height="20" viewBox="0 0 18 20" fill="none" xmlns="http://www.w3.org/2000/svg">
<g id="clinical trial icon" clip-path="url(#clip0_273_1148)">
<g id="Group">
<g id="Group_2">
<path id="Vector" d="M13.179 5.90173C13.4296 5.90173 13.633 5.69834 13.633 5.44774V3.17786C13.633 2.42697 13.022 1.81593 12.2711 1.81593H11.5061C10.995 0.744085 9.90358 0 8.63927 0H5.00746C3.74312 0 2.65178 0.744085 2.14059 1.81593H1.37561C0.624713 1.81593 0.0136719 2.42697 0.0136719 3.17786V18.6131C0.0136719 19.364 0.624713 19.9751 1.37561 19.9751H12.2711C13.022 19.9751 13.633 19.364 13.633 18.6131V16.3432C13.633 16.0926 13.4296 15.8892 13.179 15.8892C12.9284 15.8892 12.725 16.0926 12.725 16.3432V18.6131C12.725 18.8632 12.5212 19.0671 12.271 19.0671H1.37561C1.12548 19.0671 0.921614 18.8633 0.921614 18.6131V3.17786C0.921614 2.92769 1.12548 2.72387 1.37561 2.72387H1.8659C1.84458 2.87279 1.8296 3.0235 1.8296 3.17786V4.0858C1.8296 4.3364 2.033 4.5398 2.28359 4.5398H11.3631C11.6137 4.5398 11.8171 4.3364 11.8171 4.0858V3.17786C11.8171 3.0235 11.8022 2.87279 11.7808 2.72387H12.2711C12.5212 2.72387 12.7251 2.92769 12.7251 3.17786V5.44774C12.7251 5.69834 12.9284 5.90173 13.179 5.90173ZM10.9092 3.63181H2.73754V3.17786C2.73754 1.92624 3.7558 0.907985 5.00742 0.907985H8.63923C9.89085 0.907985 10.9091 1.92624 10.9091 3.17786V3.63181H10.9092Z" fill="#9E028F"/>
</g>
</g>
<g id="Group_3">
<g id="Group_4">
<path id="Vector_2" d="M6.82313 2.7239C7.07387 2.7239 7.27713 2.52064 7.27713 2.26991C7.27713 2.01918 7.07387 1.81592 6.82313 1.81592C6.5724 1.81592 6.36914 2.01918 6.36914 2.26991C6.36914 2.52064 6.5724 2.7239 6.82313 2.7239Z" fill="#9E028F"/>
</g>
</g>
<g id="Group_5">
<g id="Group_6">
<path id="Vector_3" d="M10.4549 5.90161H3.1913C2.9407 5.90161 2.7373 6.10501 2.7373 6.3556C2.7373 6.6062 2.9407 6.80955 3.1913 6.80955H10.455C10.7056 6.80955 10.909 6.60616 10.909 6.35556C10.909 6.10496 10.7055 5.90161 10.4549 5.90161Z" fill="#9E028F"/>
</g>
</g>
<g id="Group_7">
<g id="Group_8">
<path id="Vector_4" d="M8.18504 8.17163H3.1913C2.9407 8.17163 2.7373 8.37503 2.7373 8.62562C2.7373 8.87622 2.9407 9.07962 3.1913 9.07962H8.18504C8.43564 9.07962 8.63904 8.87622 8.63904 8.62562C8.63904 8.37503 8.43564 8.17163 8.18504 8.17163Z" fill="#9E028F"/>
</g>
</g>
<g id="Group_9">
<g id="Group_10">
<path id="Vector_5" d="M7.73105 10.4414H3.1913C2.9407 10.4414 2.7373 10.6448 2.7373 10.8954C2.7373 11.146 2.9407 11.3494 3.1913 11.3494H7.73109C7.98169 11.3494 8.18509 11.146 8.18509 10.8954C8.18505 10.6448 7.98165 10.4414 7.73105 10.4414Z" fill="#9E028F"/>
</g>
</g>
<g id="Group_11">
<g id="Group_12">
<path id="Vector_6" d="M10.4549 14.9812H6.82313C6.57254 14.9812 6.36914 15.1846 6.36914 15.4352C6.36914 15.6858 6.57254 15.8892 6.82313 15.8892H10.4549C10.7055 15.8892 10.9089 15.6858 10.9089 15.4352C10.9089 15.1846 10.7055 14.9812 10.4549 14.9812Z" fill="#9E028F"/>
</g>
</g>
<g id="Group_13">
<g id="Group_14">
<path id="Vector_7" d="M5.00718 14.9812H3.19125C2.9407 14.9812 2.7373 15.1846 2.7373 15.4352C2.7373 15.6858 2.9407 15.8892 3.1913 15.8892H5.00722C5.25782 15.8892 5.46122 15.6858 5.46122 15.4352C5.46117 15.1846 5.25778 14.9812 5.00718 14.9812Z" fill="#9E028F"/>
</g>
</g>
<g id="Group_15">
<g id="Group_16">
<path id="Vector_8" d="M8.18504 12.7114H3.1913C2.9407 12.7114 2.7373 12.9148 2.7373 13.1654C2.7373 13.416 2.9407 13.6194 3.1913 13.6194H8.18504C8.43564 13.6194 8.63904 13.416 8.63904 13.1654C8.63904 12.9148 8.43564 12.7114 8.18504 12.7114Z" fill="#9E028F"/>
</g>
</g>
<g id="Group_17">
<g id="Group_18">
<path id="Vector_9" d="M13.1791 6.80957C10.9264 6.80957 9.09326 8.64273 9.09326 10.8954C9.09326 13.148 10.9264 14.9812 13.1791 14.9812C15.4317 14.9812 17.2649 13.148 17.2649 10.8954C17.2649 8.64273 15.4317 6.80957 13.1791 6.80957Z" fill="#9E028F"/>
</g>
</g>
<g id="Group_19">
<g id="Group_20">
<path id="Vector_10" d="M14.7746 9.1446C14.5595 9.01569 14.2807 9.08514 14.1518 9.30033L13.089 11.0717L12.1384 10.1211C11.9608 9.94359 11.6739 9.94359 11.4964 10.1211C11.3189 10.2986 11.3189 10.5855 11.4964 10.763L12.8584 12.125C12.9433 12.2103 13.059 12.2576 13.1789 12.2576C13.1975 12.2576 13.2161 12.2567 13.2343 12.2544C13.3732 12.2371 13.4962 12.1572 13.5679 12.0374L14.9299 9.76747C15.0593 9.55225 14.9894 9.27352 14.7746 9.1446Z" fill="white"/>
</g>
</g>
</g>
<defs>
<clipPath id="clip0_273_1148">
<rect width="17.5" height="20" fill="white"/>
</clipPath>
</defs>
</svg>
