<svg width="19" height="20" viewBox="0 0 19 20" fill="none" xmlns="http://www.w3.org/2000/svg">
    <g id="dashboard icon" clip-path="url(#clip0_273_1501)">
        <path id="Vector" fill-rule="evenodd" clip-rule="evenodd"
            d="M2.375 1.77791C1.93778 1.77791 1.58333 2.13236 1.58333 2.56958V4.94458C1.58333 5.3818 1.93778 5.73625 2.375 5.73625H4.75C5.18722 5.73625 5.54167 5.3818 5.54167 4.94458V2.56958C5.54167 2.13236 5.18722 1.77791 4.75 1.77791H2.375ZM2.375 0.19458H4.75C6.06167 0.19458 7.125 1.25791 7.125 2.56958V4.94458C7.125 6.25625 6.06167 7.31958 4.75 7.31958H2.375C1.06333 7.31958 0 6.25625 0 4.94458V2.56958C0 1.25791 1.06333 0.19458 2.375 0.19458ZM11.0833 12.8612H16.625C17.9367 12.8612 19 13.9245 19 15.2362V16.8196C19 18.1313 17.9367 19.1946 16.625 19.1946H11.0833C9.77162 19.1946 8.70833 18.1313 8.70833 16.8196V15.2362C8.70833 13.9245 9.77162 12.8612 11.0833 12.8612ZM11.0833 14.4446C10.6461 14.4446 10.2917 14.799 10.2917 15.2362V16.8196C10.2917 17.2568 10.6461 17.6112 11.0833 17.6112H16.625C17.0622 17.6112 17.4167 17.2568 17.4167 16.8196V15.2362C17.4167 14.799 17.0622 14.4446 16.625 14.4446H11.0833ZM2.375 8.90291H4.75C6.06167 8.90291 7.125 9.9662 7.125 11.2779V16.8196C7.125 18.1313 6.06167 19.1946 4.75 19.1946H2.375C1.06333 19.1946 0 18.1313 0 16.8196V11.2779C0 9.9662 1.06333 8.90291 2.375 8.90291ZM2.375 10.4862C1.93778 10.4862 1.58333 10.8407 1.58333 11.2779V16.8196C1.58333 17.2568 1.93778 17.6112 2.375 17.6112H4.75C5.18722 17.6112 5.54167 17.2568 5.54167 16.8196V11.2779C5.54167 10.8407 5.18722 10.4862 4.75 10.4862H2.375ZM16.625 0.19458C17.9367 0.19458 19 1.25791 19 2.56958V8.90291C19 10.2146 17.9367 11.2779 16.625 11.2779H11.0833C9.77162 11.2779 8.70833 10.2146 8.70833 8.90291V2.56958C8.70833 1.25791 9.77162 0.19458 11.0833 0.19458H16.625ZM10.2917 2.56958V8.90291C10.2917 9.34015 10.6461 9.69458 11.0833 9.69458H16.625C17.0622 9.69458 17.4167 9.34015 17.4167 8.90291V2.56958C17.4167 2.13236 17.0622 1.77791 16.625 1.77791H11.0833C10.6461 1.77791 10.2917 2.13236 10.2917 2.56958Z"
            fill="white" />
    </g>
    <defs>
        <clipPath id="clip0_273_1501">
            <rect width="19" height="19" fill="white" transform="translate(0 0.19458)" />
        </clipPath>
    </defs>
</svg>