<svg width="16" height="16" viewBox="0 0 16 16" fill="none" xmlns="http://www.w3.org/2000/svg">
<g id="delete" clip-path="url(#clip0_273_1425)">
<path id="Vector" d="M3.01412 14.6133L1.61292 4.80653H14.3874L12.9862 14.6133C12.9318 14.9938 12.742 15.3419 12.4516 15.5938C12.1612 15.8456 11.7897 15.9842 11.4053 15.9842H4.59496C4.21058 15.9842 3.8391 15.8456 3.54871 15.5938C3.25832 15.3419 3.06851 14.9938 3.01412 14.6133ZM15.1858 1.61292H11.1938V0.814516C11.1938 0.602767 11.1096 0.39969 10.9599 0.24996C10.8102 0.10023 10.6071 0.0161133 10.3954 0.0161133H5.60494C5.39319 0.0161133 5.19011 0.10023 5.04038 0.24996C4.89065 0.39969 4.80653 0.602767 4.80653 0.814516V1.61292H0.814516C0.602767 1.61292 0.39969 1.69704 0.24996 1.84677C0.10023 1.9965 0.0161133 2.19957 0.0161133 2.41132C0.0161133 2.62307 0.10023 2.82615 0.24996 2.97588C0.39969 3.12561 0.602767 3.20973 0.814516 3.20973H15.1858C15.3975 3.20973 15.6006 3.12561 15.7503 2.97588C15.9001 2.82615 15.9842 2.62307 15.9842 2.41132C15.9842 2.19957 15.9001 1.9965 15.7503 1.84677C15.6006 1.69704 15.3975 1.61292 15.1858 1.61292Z" fill="#242259"/>
</g>
<defs>
<clipPath id="clip0_273_1425">
<rect width="16" height="16" fill="white"/>
</clipPath>
</defs>
</svg>
