<svg width="22" height="20" viewBox="0 0 22 20" fill="none" xmlns="http://www.w3.org/2000/svg">
<g id="drug icon">
<g id="row2_1_">
<g id="_x32__11_">
<g id="Group">
<path id="Vector" d="M0 15.1855C0 17.7222 2.05349 19.7929 4.60742 19.7929H5.07334C7.61001 19.7929 9.68076 17.7394 9.68076 15.1855V10.1122H0V15.1855ZM0.914581 11.044H8.73166V15.1855C8.73166 17.2217 7.07506 18.8611 5.05608 18.8611H4.59016C2.55393 18.8611 0.914581 17.2045 0.914581 15.1855V11.044ZM21.7601 13.1838L13.0975 16.7041C13.874 18.2571 15.4443 19.3098 17.2563 19.3098C19.8447 19.3098 21.9327 17.1527 21.9327 14.478C21.9327 14.0466 21.8809 13.5979 21.7601 13.1838ZM17.2563 9.6635C14.6678 9.6635 12.5798 11.8205 12.5798 14.4953C12.5798 14.9439 12.6488 15.3753 12.7524 15.7895L21.415 12.2692C20.6212 10.7161 19.0682 9.6635 17.2563 9.6635ZM5.05608 0H4.59016C2.05349 0 0 2.05349 0 4.59016V9.64625H9.6635V4.59016C9.6635 2.05349 7.61001 0 5.05608 0Z" fill="#9E028F"/>
</g>
</g>
</g>
</g>
</svg>
