<svg width="16" height="16" viewBox="0 0 16 16" fill="none" xmlns="http://www.w3.org/2000/svg">
<g id="edit icon" clip-path="url(#clip0_273_1418)">
<path id="Vector" fill-rule="evenodd" clip-rule="evenodd" d="M1.16644 12.1659L0.0558267 15.1276C0.0131796 15.2415 0.00424007 15.3654 0.0300762 15.4843C0.0559123 15.6032 0.115432 15.7122 0.201527 15.7982C0.287621 15.8842 0.396652 15.9436 0.515598 15.9693C0.634544 15.995 0.758377 15.986 0.872308 15.9432L3.83311 14.8326C4.172 14.7057 4.47979 14.5077 4.73581 14.2519L13.3122 5.67548C13.3122 5.67548 13.013 4.7787 12.1171 3.88192C11.2212 2.98599 10.3236 2.68678 10.3236 2.68678L1.74711 11.2632C1.49136 11.5192 1.29337 11.827 1.16644 12.1659ZM11.5195 1.4908L12.6885 0.321861C12.8981 0.112247 13.1779 -0.0212978 13.4703 0.0277249C13.8819 0.0953425 14.5116 0.299885 15.105 0.894074C15.6991 1.48826 15.9037 2.11711 15.9713 2.52873C16.0203 2.82117 15.8868 3.10094 15.6772 3.31056L14.5074 4.47949C14.5074 4.47949 14.209 3.58356 13.3122 2.68763C12.4163 1.79001 11.5195 1.4908 11.5195 1.4908Z" fill="#242259"/>
</g>
<defs>
<clipPath id="clip0_273_1418">
<rect width="16" height="16" fill="white"/>
</clipPath>
</defs>
</svg>
