<svg width="21" height="15" viewBox="0 0 21 15" fill="none" xmlns="http://www.w3.org/2000/svg">
<g id="flag-eu 1" clip-path="url(#clip0_273_988)">
<g id="Clip path group">
<mask id="mask0_273_988" style="mask-type:luminance" maskUnits="userSpaceOnUse" x="0" y="0" width="21" height="15">
<g id="clip0_503_2543">
<path id="Vector" d="M19.5015 0.00756836H1.5195C0.691898 0.00756836 0.0209961 0.67847 0.0209961 1.50607V13.4941C0.0209961 14.3217 0.691898 14.9926 1.5195 14.9926H19.5015C20.3291 14.9926 21 14.3217 21 13.4941V1.50607C21 0.67847 20.3291 0.00756836 19.5015 0.00756836Z" fill="white"/>
</g>
</mask>
<g mask="url(#mask0_273_988)">
<g id="Group">
<path id="Vector_2" d="M19.5015 0.00756836H1.5195C0.691898 0.00756836 0.0209961 0.67847 0.0209961 1.50607V13.4941C0.0209961 14.3217 0.691898 14.9926 1.5195 14.9926H19.5015C20.3291 14.9926 21 14.3217 21 13.4941V1.50607C21 0.67847 20.3291 0.00756836 19.5015 0.00756836Z" fill="white"/>
<g id="Mask group">
<mask id="mask1_273_988" style="mask-type:alpha" maskUnits="userSpaceOnUse" x="0" y="0" width="21" height="15">
<g id="Group_2">
<path id="Vector_3" d="M19.5015 0.00756836H1.5195C0.691898 0.00756836 0.0209961 0.67847 0.0209961 1.50607V13.4941C0.0209961 14.3217 0.691898 14.9926 1.5195 14.9926H19.5015C20.3291 14.9926 21 14.3217 21 13.4941V1.50607C21 0.67847 20.3291 0.00756836 19.5015 0.00756836Z" fill="white"/>
</g>
</mask>
<g mask="url(#mask1_273_988)">
<g id="Group_3">
<path id="Vector_4" d="M21 0.00756836H0.0209961V14.9926H21V0.00756836Z" fill="#043CAE"/>
<path id="Vector_5" fill-rule="evenodd" clip-rule="evenodd" d="M9.80411 3.21139L10.5105 3.00449L11.2169 3.21139L11.01 2.50498L11.2169 1.79858L10.5105 2.00549L9.80411 1.79858L10.011 2.50498L9.80411 3.21139ZM9.80411 13.2014L10.5105 12.9945L11.2169 13.2014L11.01 12.495L11.2169 11.7886L10.5105 11.9955L9.80411 11.7886L10.011 12.495L9.80411 13.2014ZM15.5055 7.99951L14.7991 8.20638L15.006 7.49999L14.7991 6.79359L15.5055 7.00049L16.2119 6.79359L16.005 7.49999L16.2119 8.20638L15.5055 7.99951ZM4.80908 8.20638L5.51548 7.99951L6.22188 8.20638L6.01499 7.49999L6.22188 6.79359L5.51548 7.00049L4.80908 6.79359L5.01599 7.49999L4.80908 8.20638ZM14.8363 5.50199L14.1299 5.70889L14.3368 5.00249L14.1299 4.29609L14.8363 4.50299L15.5427 4.29609L15.3358 5.00249L15.5427 5.70889L14.8363 5.50199ZM5.47829 10.7039L6.18469 10.497L6.89109 10.7039L6.68419 9.99746L6.89109 9.29107L6.18469 9.49801L5.47829 9.29107L5.68519 9.99746L5.47829 10.7039ZM13.008 3.67369L12.3016 3.88059L12.5085 3.17419L12.3016 2.46779L13.008 2.67469L13.7144 2.46779L13.5075 3.17419L13.7144 3.88059L13.008 3.67369ZM7.30659 12.5322L8.01295 12.3253L8.71942 12.5322L8.51248 11.8258L8.71942 11.1194L8.01295 11.3263L7.30659 11.1194L7.51349 11.8258L7.30659 12.5322ZM14.8363 10.497L14.1299 10.7039L14.3368 9.99746L14.1299 9.29107L14.8363 9.49801L15.5427 9.29107L15.3358 9.99746L15.5427 10.7039L14.8363 10.497ZM5.47829 5.70889L6.18469 5.50199L6.89109 5.70889L6.68419 5.00249L6.89109 4.29609L6.18469 4.50299L5.47829 4.29609L5.68519 5.00249L5.47829 5.70889ZM13.008 12.3253L12.3016 12.5322L12.5085 11.8258L12.3016 11.1194L13.008 11.3263L13.7144 11.1194L13.5075 11.8258L13.7144 12.5322L13.008 12.3253ZM7.30659 3.88059L8.01295 3.67369L8.71942 3.88059L8.51248 3.17419L8.71942 2.46779L8.01295 2.67469L7.30659 2.46779L7.51349 3.17419L7.30659 3.88059Z" fill="#FFD429"/>
</g>
</g>
</g>
</g>
</g>
</g>
</g>
<defs>
<clipPath id="clip0_273_988">
<rect width="20.979" height="15" fill="white" transform="translate(0.0209961)"/>
</clipPath>
</defs>
</svg>
