<svg width="21" height="15" viewBox="0 0 21 15" fill="none" xmlns="http://www.w3.org/2000/svg">
<g id="flag-us 1" clip-path="url(#clip0_273_967)">
<g id="Clip path group">
<mask id="mask0_273_967" style="mask-type:luminance" maskUnits="userSpaceOnUse" x="0" y="0" width="21" height="15">
<g id="clip0_503_3486">
<path id="Vector" d="M19.5015 0.00756836H1.5195C0.691898 0.00756836 0.0209961 0.67847 0.0209961 1.50607V13.4941C0.0209961 14.3217 0.691898 14.9926 1.5195 14.9926H19.5015C20.3291 14.9926 21 14.3217 21 13.4941V1.50607C21 0.67847 20.3291 0.00756836 19.5015 0.00756836Z" fill="white"/>
</g>
</mask>
<g mask="url(#mask0_273_967)">
<g id="Group">
<path id="Vector_2" d="M19.5015 0.00756836H1.5195C0.691898 0.00756836 0.0209961 0.67847 0.0209961 1.50607V13.4941C0.0209961 14.3217 0.691898 14.9926 1.5195 14.9926H19.5015C20.3291 14.9926 21 14.3217 21 13.4941V1.50607C21 0.67847 20.3291 0.00756836 19.5015 0.00756836Z" fill="white"/>
<g id="Mask group">
<mask id="mask1_273_967" style="mask-type:alpha" maskUnits="userSpaceOnUse" x="0" y="0" width="21" height="15">
<g id="Group_2">
<path id="Vector_3" d="M19.5015 0.00756836H1.5195C0.691898 0.00756836 0.0209961 0.67847 0.0209961 1.50607V13.4941C0.0209961 14.3217 0.691898 14.9926 1.5195 14.9926H19.5015C20.3291 14.9926 21 14.3217 21 13.4941V1.50607C21 0.67847 20.3291 0.00756836 19.5015 0.00756836Z" fill="white"/>
</g>
</mask>
<g mask="url(#mask1_273_967)">
<g id="Group_3">
<path id="Vector_4" fill-rule="evenodd" clip-rule="evenodd" d="M21 0.00756836H0.0209961V1.00657H21V0.00756836ZM21 2.00557H0.0209961V3.00457H21V2.00557ZM0.0209961 4.00357H21V5.00258H0.0209961V4.00357ZM21 6.00157H0.0209961V7.00057H21V6.00157ZM0.0209961 7.9996H21V8.99858H0.0209961V7.9996ZM21 9.99755H0.0209961V10.9966H21V9.99755ZM0.0209961 11.9956H21V12.9946H0.0209961V11.9956ZM21 13.9936H0.0209961V14.9926H21V13.9936Z" fill="#D02F44"/>
<path id="Vector_5" d="M9.01201 0.00756836H0.0209961V7.00057H9.01201V0.00756836Z" fill="#46467F"/>
<g id="Group_4" filter="url(#filter0_d_273_967)">
<path id="Vector_6" fill-rule="evenodd" clip-rule="evenodd" d="M2.01903 1.50609C2.01903 1.78195 1.79539 2.00559 1.51952 2.00559C1.24366 2.00559 1.02002 1.78195 1.02002 1.50609C1.02002 1.23023 1.24366 1.00659 1.51952 1.00659C1.79539 1.00659 2.01903 1.23023 2.01903 1.50609ZM4.01702 1.50609C4.01702 1.78195 3.79339 2.00559 3.51753 2.00559C3.24166 2.00559 3.01802 1.78195 3.01802 1.50609C3.01802 1.23023 3.24166 1.00659 3.51753 1.00659C3.79339 1.00659 4.01702 1.23023 4.01702 1.50609ZM5.51552 2.00559C5.79139 2.00559 6.01503 1.78195 6.01503 1.50609C6.01503 1.23023 5.79139 1.00659 5.51552 1.00659C5.23966 1.00659 5.01603 1.23023 5.01603 1.50609C5.01603 1.78195 5.23966 2.00559 5.51552 2.00559ZM8.01299 1.50609C8.01299 1.78195 7.78942 2.00559 7.51353 2.00559C7.23766 2.00559 7.01403 1.78195 7.01403 1.50609C7.01403 1.23023 7.23766 1.00659 7.51353 1.00659C7.78942 1.00659 8.01299 1.23023 8.01299 1.50609ZM2.51852 3.00459C2.79439 3.00459 3.01802 2.78096 3.01802 2.50509C3.01802 2.22923 2.79439 2.00559 2.51852 2.00559C2.24265 2.00559 2.01903 2.22923 2.01903 2.50509C2.01903 2.78096 2.24265 3.00459 2.51852 3.00459ZM5.01603 2.50509C5.01603 2.78096 4.79239 3.00459 4.51653 3.00459C4.24066 3.00459 4.01702 2.78096 4.01702 2.50509C4.01702 2.22923 4.24066 2.00559 4.51653 2.00559C4.79239 2.00559 5.01603 2.22923 5.01603 2.50509ZM6.51453 3.00459C6.7904 3.00459 7.01403 2.78096 7.01403 2.50509C7.01403 2.22923 6.7904 2.00559 6.51453 2.00559C6.23866 2.00559 6.01503 2.22923 6.01503 2.50509C6.01503 2.78096 6.23866 3.00459 6.51453 3.00459ZM8.01299 3.50409C8.01299 3.77996 7.78942 4.00359 7.51353 4.00359C7.23766 4.00359 7.01403 3.77996 7.01403 3.50409C7.01403 3.22822 7.23766 3.00459 7.51353 3.00459C7.78942 3.00459 8.01299 3.22822 8.01299 3.50409ZM5.51552 4.00359C5.79139 4.00359 6.01503 3.77996 6.01503 3.50409C6.01503 3.22822 5.79139 3.00459 5.51552 3.00459C5.23966 3.00459 5.01603 3.22822 5.01603 3.50409C5.01603 3.77996 5.23966 4.00359 5.51552 4.00359ZM4.01702 3.50409C4.01702 3.77996 3.79339 4.00359 3.51753 4.00359C3.24166 4.00359 3.01802 3.77996 3.01802 3.50409C3.01802 3.22822 3.24166 3.00459 3.51753 3.00459C3.79339 3.00459 4.01702 3.22822 4.01702 3.50409ZM1.51952 4.00359C1.79539 4.00359 2.01903 3.77996 2.01903 3.50409C2.01903 3.22822 1.79539 3.00459 1.51952 3.00459C1.24366 3.00459 1.02002 3.22822 1.02002 3.50409C1.02002 3.77996 1.24366 4.00359 1.51952 4.00359ZM3.01802 4.50309C3.01802 4.77896 2.79439 5.00259 2.51852 5.00259C2.24265 5.00259 2.01903 4.77896 2.01903 4.50309C2.01903 4.22722 2.24265 4.00359 2.51852 4.00359C2.79439 4.00359 3.01802 4.22722 3.01802 4.50309ZM4.51653 5.00259C4.79239 5.00259 5.01603 4.77896 5.01603 4.50309C5.01603 4.22722 4.79239 4.00359 4.51653 4.00359C4.24066 4.00359 4.01702 4.22722 4.01702 4.50309C4.01702 4.77896 4.24066 5.00259 4.51653 5.00259ZM7.01403 4.50309C7.01403 4.77896 6.7904 5.00259 6.51453 5.00259C6.23866 5.00259 6.01503 4.77896 6.01503 4.50309C6.01503 4.22722 6.23866 4.00359 6.51453 4.00359C6.7904 4.00359 7.01403 4.22722 7.01403 4.50309ZM7.51353 6.0016C7.78942 6.0016 8.01299 5.77796 8.01299 5.5021C8.01299 5.22623 7.78942 5.00259 7.51353 5.00259C7.23766 5.00259 7.01403 5.22623 7.01403 5.5021C7.01403 5.77796 7.23766 6.0016 7.51353 6.0016ZM6.01503 5.5021C6.01503 5.77796 5.79139 6.0016 5.51552 6.0016C5.23966 6.0016 5.01603 5.77796 5.01603 5.5021C5.01603 5.22623 5.23966 5.00259 5.51552 5.00259C5.79139 5.00259 6.01503 5.22623 6.01503 5.5021ZM3.51753 6.0016C3.79339 6.0016 4.01702 5.77796 4.01702 5.5021C4.01702 5.22623 3.79339 5.00259 3.51753 5.00259C3.24166 5.00259 3.01802 5.22623 3.01802 5.5021C3.01802 5.77796 3.24166 6.0016 3.51753 6.0016ZM2.01903 5.5021C2.01903 5.77796 1.79539 6.0016 1.51952 6.0016C1.24366 6.0016 1.02002 5.77796 1.02002 5.5021C1.02002 5.22623 1.24366 5.00259 1.51952 5.00259C1.79539 5.00259 2.01903 5.22623 2.01903 5.5021Z" fill="url(#paint0_linear_273_967)"/>
</g>
</g>
</g>
</g>
</g>
</g>
</g>
</g>
<defs>
<filter id="filter0_d_273_967" x="1.02002" y="1.00659" width="6.99316" height="33.5665" filterUnits="userSpaceOnUse" color-interpolation-filters="sRGB">
<feFlood flood-opacity="0" result="BackgroundImageFix"/>
<feColorMatrix in="SourceAlpha" type="matrix" values="0 0 0 0 0 0 0 0 0 0 0 0 0 0 0 0 0 0 127 0" result="hardAlpha"/>
<feOffset dy="28.5714"/>
<feColorMatrix type="matrix" values="0 0 0 0 0 0 0 0 0 0 0 0 0 0 0 0 0 0 0.06 0"/>
<feBlend mode="normal" in2="BackgroundImageFix" result="effect1_dropShadow_273_967"/>
<feBlend mode="normal" in="SourceGraphic" in2="effect1_dropShadow_273_967" result="shape"/>
</filter>
<linearGradient id="paint0_linear_273_967" x1="1.02002" y1="1.00659" x2="1.02002" y2="6.00159" gradientUnits="userSpaceOnUse">
<stop stop-color="white"/>
<stop offset="1" stop-color="#F0F0F0"/>
</linearGradient>
<clipPath id="clip0_273_967">
<rect width="20.979" height="15" fill="white" transform="translate(0.0209961)"/>
</clipPath>
</defs>
</svg>
