<svg width="20" height="18" viewBox="0 0 20 18" fill="none" xmlns="http://www.w3.org/2000/svg">
<g id="logout icon" opacity="0.7">
<g clip-path="url(#clip0_273_1551)">
<g id="Logout">
<path id="Logout_2" fill-rule="evenodd" clip-rule="evenodd" d="M7.68621 8.14412C7.30018 8.14412 6.99495 8.44412 6.99495 8.82353C6.99495 9.19412 7.30018 9.50294 7.68621 9.50294H13.0727V13.7206C13.0727 15.8824 11.2862 17.6471 9.07771 17.6471H4.7057C2.50623 17.6471 0.719727 15.8912 0.719727 13.7294V3.92647C0.719727 1.75588 2.51521 0 4.71468 0H9.09567C11.2862 0 13.0727 1.75588 13.0727 3.91765V8.14412H7.68621ZM16.2758 5.77077L18.8523 8.33842C18.9846 8.47077 19.0552 8.63842 19.0552 8.82371C19.0552 9.00018 18.9846 9.17665 18.8523 9.30018L16.2758 11.8678C16.1435 12.0002 15.967 12.0708 15.7994 12.0708C15.6229 12.0708 15.4464 12.0002 15.3141 11.8678C15.0494 11.6031 15.0494 11.1708 15.3141 10.9061L16.7258 9.50312H13.0729V8.1443H16.7258L15.3141 6.74136C15.0494 6.47665 15.0494 6.0443 15.3141 5.77959C15.5788 5.50606 16.0111 5.50606 16.2758 5.77077Z" fill="#242259"/>
</g>
</g>
</g>
<defs>
<clipPath id="clip0_273_1551">
<rect width="19.8" height="18" rx="7" fill="white"/>
</clipPath>
</defs>
</svg>
