<svg width="21" height="20" viewBox="0 0 21 20" fill="none" xmlns="http://www.w3.org/2000/svg">
<g id="subscription icon" clip-path="url(#clip0_273_1517)">
<g id="Group">
<path id="Vector" d="M19.0461 11.1606C18.6519 13.242 17.5352 15.071 15.9666 16.3805C14.3881 17.6981 12.356 18.4914 10.1391 18.4914C8.05586 18.4914 6.13427 17.7916 4.60194 16.6148C3.03497 15.4135 1.87706 13.714 1.36409 11.7538L2.4956 11.4621C2.94095 13.1682 3.95041 14.6482 5.3145 15.6954C6.64724 16.7181 8.31977 17.3261 10.1375 17.3261C12.0722 17.3261 13.8437 16.6361 15.2144 15.4922C16.5257 14.3974 17.4742 12.8847 17.8502 11.1589H16.6412L18.4539 8.96444L20.2667 11.1589H19.0461V11.1606ZM10.1094 11.7965V9.73964C9.38036 9.55608 8.8476 9.27911 8.50946 8.90872C8.16967 8.53668 7.99813 8.08599 7.99813 7.55498C7.99813 7.01742 8.19112 6.56508 8.57544 6.20125C8.95976 5.83577 9.47108 5.62599 10.1094 5.57027V5.08679H10.9242V5.57027C11.5213 5.63255 11.9947 5.81119 12.3494 6.10455C12.7007 6.39792 12.9267 6.79125 13.024 7.28292L11.6005 7.44354C11.5131 7.05676 11.2871 6.79453 10.9242 6.65686V8.57602C11.8248 8.78744 12.4384 9.06441 12.7634 9.40203C13.09 9.74128 13.2532 10.1756 13.2532 10.7066C13.2532 11.2999 13.0487 11.7981 12.638 12.2045C12.2273 12.611 11.6566 12.8634 10.9242 12.9634V13.8811H10.1094V12.9748C9.46614 12.906 8.94491 12.6979 8.5408 12.3471C8.13669 11.9964 7.88102 11.4998 7.76886 10.859L9.22532 10.7082C9.2847 10.9705 9.39686 11.195 9.5618 11.3851C9.72675 11.5752 9.90819 11.7112 10.1094 11.7965ZM10.1094 6.63884C9.89004 6.70767 9.71685 6.82075 9.58984 6.97809C9.46119 7.13542 9.39851 7.30915 9.39851 7.49926C9.39851 7.67298 9.45624 7.8336 9.57335 7.98274C9.69046 8.13024 9.87025 8.25152 10.1111 8.34166V6.63884H10.1094ZM10.9242 11.8784C11.2046 11.8243 11.4356 11.7063 11.6104 11.526C11.7885 11.3441 11.876 11.1311 11.876 10.8836C11.876 10.6656 11.8017 10.4755 11.6516 10.3182C11.5048 10.1592 11.2624 10.0379 10.9226 9.9527V11.8784H10.9242ZM1.23048 7.80901C1.6214 5.74563 2.72158 3.93137 4.2671 2.62352C5.85056 1.28454 7.90082 0.476562 10.1375 0.476562C12.1052 0.476562 13.9262 1.09935 15.4124 2.15808C16.9381 3.24467 18.1092 4.79015 18.7244 6.59295L18.1702 6.77978L17.616 6.96662C17.6012 6.92073 17.5847 6.87484 17.5682 6.83059C17.0222 5.32116 16.021 4.02643 14.7311 3.107C13.438 2.18594 11.8529 1.64346 10.1391 1.64346C8.18617 1.64346 6.39983 2.34491 5.02419 3.50853C3.73103 4.60168 2.7991 6.10128 2.42468 7.80901H3.62712L1.81273 10.0035L0 7.80901H1.23048Z" fill="#242259"/>
</g>
</g>
<defs>
<clipPath id="clip0_273_1517">
<rect width="20.2667" height="19" fill="white" transform="translate(0 0.19458)"/>
</clipPath>
</defs>
</svg>
