<svg width="16" height="16" viewBox="0 0 16 16" fill="none" xmlns="http://www.w3.org/2000/svg">
<g id="tick">
<rect width="16" height="16" rx="3" fill="white"/>
<rect x="0.5" y="0.5" width="15" height="15" rx="2.5" stroke="#030229" stroke-opacity="0.5"/>
<path id="Vector" d="M11.8849 5.11349C11.8121 5.0408 11.7135 5 11.6107 5C11.5079 5 11.4093 5.0408 11.3365 5.11349L7.01871 9.42615L4.68479 7.08443C4.61361 7.00732 4.5148 6.96174 4.41012 6.95771C4.30544 6.95368 4.20345 6.99155 4.12659 7.06297C4.04974 7.13439 4.0043 7.23352 4.00029 7.33855C3.99628 7.44358 4.03401 7.54591 4.1052 7.62303L7.01871 10.5385L11.8849 5.6677C11.9214 5.63142 11.9503 5.58825 11.9701 5.54069C11.9898 5.49313 12 5.44212 12 5.3906C12 5.33907 11.9898 5.28806 11.9701 5.2405C11.9503 5.19294 11.9214 5.14977 11.8849 5.11349Z" fill="#030229" stroke="#030229"/>
</g>
</svg>
