<svg width="17" height="17" viewBox="0 0 17 17" fill="none" xmlns="http://www.w3.org/2000/svg">
<g id="upload icon" clip-path="url(#clip0_273_982)">
<path id="Vector" d="M8.67814 10.2239C8.67947 10.6564 8.32995 11.0081 7.89741 11.0095C7.46494 11.0109 7.11315 10.6613 7.11182 10.2288L8.67814 10.2239Z" fill="#030229"/>
<path id="Vector_2" d="M6.08173 4.52057L7.09109 3.50487L7.11216 10.2289L8.67848 10.224L8.65741 3.49996L9.6731 4.5093C9.97986 4.81419 10.4758 4.81265 10.7806 4.50584C11.0855 4.19905 11.084 3.70317 10.7772 3.39829L7.86485 0.50415L4.9707 3.41649L6.08173 4.52057Z" fill="#030229"/>
<path id="Vector_3" d="M4.97082 3.4165C4.66594 3.72331 4.66748 4.21919 4.97428 4.52408C5.28108 4.82896 5.77697 4.82739 6.08185 4.52058L4.97082 3.4165Z" fill="#030229"/>
<path id="Vector_4" d="M1.60294 8.65267C1.60294 7.78759 2.30421 7.08634 3.16927 7.08634C3.60179 7.08634 3.95243 6.73571 3.95243 6.30318C3.95243 5.87066 3.60179 5.52002 3.16927 5.52002C1.43915 5.52002 0.0366211 6.92255 0.0366211 8.65267V13.3516C0.0366211 15.0817 1.43915 16.4843 3.16927 16.4843H11.784C13.9467 16.4843 15.6999 14.7311 15.6999 12.5685V8.65267C15.6999 6.92255 14.2973 5.52002 12.5672 5.52002C12.1347 5.52002 11.784 5.87066 11.784 6.30318C11.784 6.73571 12.1347 7.08634 12.5672 7.08634C13.4323 7.08634 14.1335 7.78759 14.1335 8.65267V12.5685C14.1335 13.8661 13.0817 14.918 11.784 14.918H3.16927C2.30421 14.918 1.60294 14.2167 1.60294 13.3516V8.65267Z" fill="#030229"/>
</g>
<defs>
<clipPath id="clip0_273_982">
<rect width="16" height="16" fill="white" transform="translate(0.0209961 0.5)"/>
</clipPath>
</defs>
</svg>
