<svg width="24" height="24" viewBox="0 0 24 24" fill="none" xmlns="http://www.w3.org/2000/svg">
<g id="user icon" clip-path="url(#clip0_273_1546)">
<path id="Vector" fill-rule="evenodd" clip-rule="evenodd" d="M23.9765 12C23.9765 18.6141 18.6146 23.976 12.0005 23.976C5.38627 23.976 0.0244141 18.6141 0.0244141 12C0.0244141 5.38578 5.38627 0.0239258 12.0005 0.0239258C18.6146 0.0239258 23.9765 5.38578 23.9765 12ZM15.5933 8.40716C15.5933 10.3915 13.9848 12 12.0005 12C10.0162 12 8.40765 10.3915 8.40765 8.40716C8.40765 6.42291 10.0162 4.81434 12.0005 4.81434C13.9848 4.81434 15.5933 6.42291 15.5933 8.40716ZM12.0005 22.1796C14.137 22.1796 16.1199 21.5214 17.7572 20.3966C18.4805 19.8999 18.7894 18.9535 18.3691 18.1834C17.4975 16.5872 15.7013 15.5928 12.0003 15.5928C8.29949 15.5928 6.50342 16.587 5.63177 18.1834C5.2113 18.9535 5.52034 19.8997 6.24353 20.3965C7.88092 21.5213 9.86382 22.1796 12.0005 22.1796Z" fill="#9E028F"/>
</g>
<defs>
<clipPath id="clip0_273_1546">
<rect width="24" height="24" fill="white"/>
</clipPath>
</defs>
</svg>
